<svg xmlns="http://www.w3.org/2000/svg" width="352" height="144" fill="none"><path fill-rule="evenodd" clip-rule="evenodd" d="M25.73 3.3L64 32l38.27-28.7a15.96 15.96 0 019.9-3.3H160a16 16 0 110 32h-42.67L73.9 64.6a16.02 16.02 0 01-19.77 0L32 48v80a16 16 0 11-32 0V16.16A15.96 15.96 0 0115.16.02 15.97 15.97 0 0125.73 3.3zM352 16.22V16a16 16 0 00-16-16h-48a16 16 0 100 32h32v80h-32a16 16 0 000 32h48a16 16 0 0016-16V16.22z" fill="#fff"/><path fill-rule="evenodd" clip-rule="evenodd" d="M96 128a16 16 0 1032 0V96h16a16 16 0 100-32h-31.99-.01a16 16 0 00-16 16v48zM224 0a16 16 0 100 32 16 16 0 000-32zm-16 128a16 16 0 1032 0V80a16 16 0 00-32 0v48z" fill="#fff"/></svg>