<svg width="352" height="144" viewBox="0 0 352 144" fill="none" xmlns="http://www.w3.org/2000/svg">
<path fill-rule="evenodd" clip-rule="evenodd" d="M25.7302 3.2979L64.0006 32.0007L102.271 3.29776C103.66 2.23256 105.228 1.38996 106.923 0.823276C108.629 0.252309 110.401 -0.018176 112.162 0.000946602H160C168.837 0.000946602 176 7.16439 176 16.0009C176 24.8375 168.837 32.0009 160 32.0009H117.334L73.8856 64.5869C72.926 65.3416 71.8934 65.9745 70.8111 66.4824C66.5645 68.475 61.5537 68.5415 57.1863 66.4806C56.1055 65.9731 55.0743 65.3408 54.1158 64.5871L32.0009 48.0009V128C32.0009 136.837 24.8375 144 16.0009 144C7.16439 144 0.000942204 136.837 0.000942204 128V16.1626C-0.0180961 14.4049 0.251265 12.6368 0.819833 10.9341C1.45928 9.01733 2.45159 7.26195 3.71969 5.74506C5.17088 4.0043 6.92375 2.64519 8.84411 1.6869C10.7627 0.725754 12.9014 0.138996 15.1644 0.0224379C17.143 -0.0821922 19.147 0.178436 21.0678 0.819837C22.7666 1.38657 24.3386 2.23048 25.7302 3.2979Z" fill="black"/>
<path fill-rule="evenodd" clip-rule="evenodd" d="M351.999 16.2157C352 16.1442 352 16.0727 352 16.001C352 7.16442 344.837 0.000976562 336 0.000976562H335.999H288C279.163 0.000976562 272 7.16442 272 16.001C272 24.8375 279.163 32.001 288 32.001H319.999V112H288C279.163 112 272 119.164 272 128C272 136.837 279.163 144 288 144H336C344.837 144 352 136.837 352 128C352 127.929 352 127.857 351.999 127.786V16.2157Z" fill="black"/>
<path fill-rule="evenodd" clip-rule="evenodd" d="M96.0005 128C96.0005 136.837 103.164 144 112 144C120.837 144 128 136.837 128 128V96.0006H144C152.837 96.0006 160 88.8372 160 80.0006C160 71.1641 152.837 64.0006 144 64.0006H112.012C112.008 64.0006 112.004 64.0006 112 64.0006C110.896 64.0006 109.817 64.1125 108.776 64.3257C101.485 65.8176 96.0005 72.2686 96.0005 80.0006V128Z" fill="black"/>
<path fill-rule="evenodd" clip-rule="evenodd" d="M223.999 0.000976562C215.163 0.000976562 208 7.16439 208 16.0009C208 24.8374 215.163 32.0009 223.999 32.0009C232.836 32.0009 239.999 24.8374 239.999 16.0009C239.999 7.16439 232.836 0.000976562 223.999 0.000976562ZM208 128C208 136.837 215.163 144 224 144C232.836 144 240 136.837 240 128V80.0005C240 71.1639 232.836 64.0005 224 64.0005C215.163 64.0005 208 71.1639 208 80.0005V128Z" fill="black"/>
</svg>
